<svg width="152" height="129" viewBox="0 0 152 129" fill="none" xmlns="http://www.w3.org/2000/svg">
<path opacity="0.3" fill-rule="evenodd" clip-rule="evenodd" d="M151.027 3.15683C150.394 2.11752 149.477 1.28144 148.383 0.747781C147.289 0.214119 146.065 0.00535704 144.856 0.14609L6.48756 16.2575C5.28563 16.3974 4.1482 16.8757 3.20755 17.6367C2.26693 18.3977 1.56155 19.4101 1.17364 20.5563C0.785762 21.7025 0.731259 22.9352 1.01647 24.1111C1.30174 25.2872 1.91504 26.3579 2.7848 27.1988L44.4305 67.4651C44.6866 67.7128 44.875 68.022 44.9775 68.3632L61.6462 123.842L65.7341 122.614L61.6462 123.842C61.9944 125.001 62.6643 126.037 63.5784 126.83C64.4923 127.623 65.6126 128.14 66.8089 128.321C68.0056 128.503 69.2287 128.34 70.3363 127.854C71.4441 127.367 72.391 126.576 73.0668 125.572L150.871 10.0212L146.343 6.97246L150.871 10.0212C151.551 9.01174 151.927 7.82853 151.954 6.61192C151.982 5.39524 151.66 4.19617 151.027 3.15683ZM17.2466 25.9958L136.286 12.1351L69.3508 111.544L56.0805 67.3765L95.1941 43.554C97.7689 41.9858 98.5849 38.6273 97.0167 36.0525C95.4485 33.4777 92.09 32.6617 89.5152 34.2299L50.4016 58.0525L17.2466 25.9958Z" fill="#22959D"/>
</svg>
